<?xml version="1.0" encoding="UTF-8" standalone="no"?>
<!DOCTYPE svg PUBLIC "-//W3C//DTD SVG 1.1//EN"
 "http://www.w3.org/Graphics/SVG/1.1/DTD/svg11.dtd">
<!-- Generated by graphviz version 2.43.0 (0)
 -->
<!-- Title: controllers_diagram Pages: 1 -->
<svg width="564pt" height="720pt"
 viewBox="0.00 0.00 564.00 720.00" xmlns="http://www.w3.org/2000/svg" xmlns:xlink="http://www.w3.org/1999/xlink">
<g id="graph0" class="graph" transform="scale(1 1) rotate(0) translate(4 716)">
<title>controllers_diagram</title>
<polygon fill="transparent" stroke="transparent" points="-4,4 -4,-716 560,-716 560,4 -4,4"/>
<!-- _diagram_info -->
<g id="node1" class="node">
<title>_diagram_info</title>
<text text-anchor="start" x="65" y="-101.6" font-family="Times,serif" font-size="13.00">Controllers diagram</text>
<text text-anchor="start" x="65" y="-87.6" font-family="Times,serif" font-size="13.00">Date: Aug 01 2020 &#45; 16:51</text>
<text text-anchor="start" x="65" y="-73.6" font-family="Times,serif" font-size="13.00">Migration version: 20200729014848</text>
<text text-anchor="start" x="65" y="-59.6" font-family="Times,serif" font-size="13.00">Generated by RailRoady 1.5.3</text>
<text text-anchor="start" x="65" y="-45.6" font-family="Times,serif" font-size="13.00">http://railroady.prestonlee.com</text>
</g>
<!-- ApplicationController -->
<g id="node2" class="node">
<title>ApplicationController</title>
<path fill="none" stroke="black" d="M12,-380.5C12,-380.5 158,-380.5 158,-380.5 164,-380.5 170,-386.5 170,-392.5 170,-392.5 170,-462.5 170,-462.5 170,-468.5 164,-474.5 158,-474.5 158,-474.5 12,-474.5 12,-474.5 6,-474.5 0,-468.5 0,-462.5 0,-462.5 0,-392.5 0,-392.5 0,-386.5 6,-380.5 12,-380.5"/>
<text text-anchor="middle" x="85" y="-459.3" font-family="Times,serif" font-size="14.00">ApplicationController</text>
<polyline fill="none" stroke="black" points="0,-451.5 170,-451.5 "/>
<polyline fill="none" stroke="black" points="0,-427.5 170,-427.5 "/>
<polyline fill="none" stroke="black" points="0,-403.5 170,-403.5 "/>
<text text-anchor="start" x="8" y="-388.3" font-family="Times,serif" font-size="14.00">_layout</text>
</g>
<!-- HospitalTestsController -->
<g id="node3" class="node">
<title>HospitalTestsController</title>
<path fill="none" stroke="black" d="M202,-152.5C202,-152.5 365,-152.5 365,-152.5 371,-152.5 377,-158.5 377,-164.5 377,-164.5 377,-338.5 377,-338.5 377,-344.5 371,-350.5 365,-350.5 365,-350.5 202,-350.5 202,-350.5 196,-350.5 190,-344.5 190,-338.5 190,-338.5 190,-164.5 190,-164.5 190,-158.5 196,-152.5 202,-152.5"/>
<text text-anchor="middle" x="283.5" y="-335.3" font-family="Times,serif" font-size="14.00">HospitalTestsController</text>
<polyline fill="none" stroke="black" points="190,-327.5 377,-327.5 "/>
<text text-anchor="start" x="198" y="-312.3" font-family="Times,serif" font-size="14.00">create</text>
<text text-anchor="start" x="198" y="-297.3" font-family="Times,serif" font-size="14.00">destroy</text>
<text text-anchor="start" x="198" y="-282.3" font-family="Times,serif" font-size="14.00">edit</text>
<text text-anchor="start" x="198" y="-267.3" font-family="Times,serif" font-size="14.00">index</text>
<text text-anchor="start" x="198" y="-252.3" font-family="Times,serif" font-size="14.00">new</text>
<text text-anchor="start" x="198" y="-237.3" font-family="Times,serif" font-size="14.00">show</text>
<text text-anchor="start" x="198" y="-222.3" font-family="Times,serif" font-size="14.00">update</text>
<polyline fill="none" stroke="black" points="190,-214.5 377,-214.5 "/>
<polyline fill="none" stroke="black" points="190,-190.5 377,-190.5 "/>
<text text-anchor="start" x="198" y="-175.3" font-family="Times,serif" font-size="14.00">_layout</text>
<text text-anchor="start" x="198" y="-160.3" font-family="Times,serif" font-size="14.00">hospital_test_params</text>
</g>
<!-- BookingsController -->
<g id="node4" class="node">
<title>BookingsController</title>
<path fill="none" stroke="black" d="M221,-380.5C221,-380.5 352,-380.5 352,-380.5 358,-380.5 364,-386.5 364,-392.5 364,-392.5 364,-566.5 364,-566.5 364,-572.5 358,-578.5 352,-578.5 352,-578.5 221,-578.5 221,-578.5 215,-578.5 209,-572.5 209,-566.5 209,-566.5 209,-392.5 209,-392.5 209,-386.5 215,-380.5 221,-380.5"/>
<text text-anchor="middle" x="286.5" y="-563.3" font-family="Times,serif" font-size="14.00">BookingsController</text>
<polyline fill="none" stroke="black" points="209,-555.5 364,-555.5 "/>
<text text-anchor="start" x="217" y="-540.3" font-family="Times,serif" font-size="14.00">create</text>
<text text-anchor="start" x="217" y="-525.3" font-family="Times,serif" font-size="14.00">destroy</text>
<text text-anchor="start" x="217" y="-510.3" font-family="Times,serif" font-size="14.00">edit</text>
<text text-anchor="start" x="217" y="-495.3" font-family="Times,serif" font-size="14.00">index</text>
<text text-anchor="start" x="217" y="-480.3" font-family="Times,serif" font-size="14.00">new</text>
<text text-anchor="start" x="217" y="-465.3" font-family="Times,serif" font-size="14.00">show</text>
<text text-anchor="start" x="217" y="-450.3" font-family="Times,serif" font-size="14.00">update</text>
<polyline fill="none" stroke="black" points="209,-442.5 364,-442.5 "/>
<polyline fill="none" stroke="black" points="209,-418.5 364,-418.5 "/>
<text text-anchor="start" x="217" y="-403.3" font-family="Times,serif" font-size="14.00">_layout</text>
<text text-anchor="start" x="217" y="-388.3" font-family="Times,serif" font-size="14.00">booking_params</text>
</g>
<!-- TestsController -->
<g id="node5" class="node">
<title>TestsController</title>
<path fill="none" stroke="black" d="M430,-133.5C430,-133.5 533,-133.5 533,-133.5 539,-133.5 545,-139.5 545,-145.5 545,-145.5 545,-334.5 545,-334.5 545,-340.5 539,-346.5 533,-346.5 533,-346.5 430,-346.5 430,-346.5 424,-346.5 418,-340.5 418,-334.5 418,-334.5 418,-145.5 418,-145.5 418,-139.5 424,-133.5 430,-133.5"/>
<text text-anchor="middle" x="481.5" y="-331.3" font-family="Times,serif" font-size="14.00">TestsController</text>
<polyline fill="none" stroke="black" points="418,-323.5 545,-323.5 "/>
<text text-anchor="start" x="426" y="-308.3" font-family="Times,serif" font-size="14.00">create</text>
<text text-anchor="start" x="426" y="-293.3" font-family="Times,serif" font-size="14.00">destroy</text>
<text text-anchor="start" x="426" y="-278.3" font-family="Times,serif" font-size="14.00">edit</text>
<text text-anchor="start" x="426" y="-263.3" font-family="Times,serif" font-size="14.00">index</text>
<text text-anchor="start" x="426" y="-248.3" font-family="Times,serif" font-size="14.00">list</text>
<text text-anchor="start" x="426" y="-233.3" font-family="Times,serif" font-size="14.00">new</text>
<text text-anchor="start" x="426" y="-218.3" font-family="Times,serif" font-size="14.00">show</text>
<text text-anchor="start" x="426" y="-203.3" font-family="Times,serif" font-size="14.00">update</text>
<polyline fill="none" stroke="black" points="418,-195.5 545,-195.5 "/>
<polyline fill="none" stroke="black" points="418,-171.5 545,-171.5 "/>
<text text-anchor="start" x="426" y="-156.3" font-family="Times,serif" font-size="14.00">_layout</text>
<text text-anchor="start" x="426" y="-141.3" font-family="Times,serif" font-size="14.00">test_params</text>
</g>
<!-- WelcomeController -->
<g id="node6" class="node">
<title>WelcomeController</title>
<path fill="none" stroke="black" d="M12,-247.5C12,-247.5 141,-247.5 141,-247.5 147,-247.5 153,-253.5 153,-259.5 153,-259.5 153,-328.5 153,-328.5 153,-334.5 147,-340.5 141,-340.5 141,-340.5 12,-340.5 12,-340.5 6,-340.5 0,-334.5 0,-328.5 0,-328.5 0,-259.5 0,-259.5 0,-253.5 6,-247.5 12,-247.5"/>
<text text-anchor="middle" x="76.5" y="-325.3" font-family="Times,serif" font-size="14.00">WelcomeController</text>
<polyline fill="none" stroke="black" points="0,-317.5 153,-317.5 "/>
<text text-anchor="start" x="8" y="-302.3" font-family="Times,serif" font-size="14.00">index</text>
<polyline fill="none" stroke="black" points="0,-294.5 153,-294.5 "/>
<polyline fill="none" stroke="black" points="0,-270.5 153,-270.5 "/>
<text text-anchor="start" x="8" y="-255.3" font-family="Times,serif" font-size="14.00">_layout</text>
</g>
<!-- RegisterUsersController -->
<g id="node7" class="node">
<title>RegisterUsersController</title>
<path fill="none" stroke="black" d="M373,-0.5C373,-0.5 541,-0.5 541,-0.5 547,-0.5 553,-6.5 553,-12.5 553,-12.5 553,-81.5 553,-81.5 553,-87.5 547,-93.5 541,-93.5 541,-93.5 373,-93.5 373,-93.5 367,-93.5 361,-87.5 361,-81.5 361,-81.5 361,-12.5 361,-12.5 361,-6.5 367,-0.5 373,-0.5"/>
<text text-anchor="middle" x="457" y="-78.3" font-family="Times,serif" font-size="14.00">RegisterUsersController</text>
<polyline fill="none" stroke="black" points="361,-70.5 553,-70.5 "/>
<text text-anchor="start" x="369" y="-55.3" font-family="Times,serif" font-size="14.00">index</text>
<polyline fill="none" stroke="black" points="361,-47.5 553,-47.5 "/>
<polyline fill="none" stroke="black" points="361,-23.5 553,-23.5 "/>
<text text-anchor="start" x="369" y="-8.3" font-family="Times,serif" font-size="14.00">_layout</text>
</g>
<!-- UsersController -->
<g id="node8" class="node">
<title>UsersController</title>
<path fill="none" stroke="black" d="M50,-513.5C50,-513.5 157,-513.5 157,-513.5 163,-513.5 169,-519.5 169,-525.5 169,-525.5 169,-699.5 169,-699.5 169,-705.5 163,-711.5 157,-711.5 157,-711.5 50,-711.5 50,-711.5 44,-711.5 38,-705.5 38,-699.5 38,-699.5 38,-525.5 38,-525.5 38,-519.5 44,-513.5 50,-513.5"/>
<text text-anchor="middle" x="103.5" y="-696.3" font-family="Times,serif" font-size="14.00">UsersController</text>
<polyline fill="none" stroke="black" points="38,-688.5 169,-688.5 "/>
<text text-anchor="start" x="46" y="-673.3" font-family="Times,serif" font-size="14.00">create</text>
<text text-anchor="start" x="46" y="-658.3" font-family="Times,serif" font-size="14.00">destroy</text>
<text text-anchor="start" x="46" y="-643.3" font-family="Times,serif" font-size="14.00">edit</text>
<text text-anchor="start" x="46" y="-628.3" font-family="Times,serif" font-size="14.00">index</text>
<text text-anchor="start" x="46" y="-613.3" font-family="Times,serif" font-size="14.00">new</text>
<text text-anchor="start" x="46" y="-598.3" font-family="Times,serif" font-size="14.00">show</text>
<text text-anchor="start" x="46" y="-583.3" font-family="Times,serif" font-size="14.00">update</text>
<polyline fill="none" stroke="black" points="38,-575.5 169,-575.5 "/>
<polyline fill="none" stroke="black" points="38,-551.5 169,-551.5 "/>
<text text-anchor="start" x="46" y="-536.3" font-family="Times,serif" font-size="14.00">_layout</text>
<text text-anchor="start" x="46" y="-521.3" font-family="Times,serif" font-size="14.00">user_params</text>
</g>
<!-- HospitalsController -->
<g id="node9" class="node">
<title>HospitalsController</title>
<path fill="none" stroke="black" d="M411,-380.5C411,-380.5 544,-380.5 544,-380.5 550,-380.5 556,-386.5 556,-392.5 556,-392.5 556,-581.5 556,-581.5 556,-587.5 550,-593.5 544,-593.5 544,-593.5 411,-593.5 411,-593.5 405,-593.5 399,-587.5 399,-581.5 399,-581.5 399,-392.5 399,-392.5 399,-386.5 405,-380.5 411,-380.5"/>
<text text-anchor="middle" x="477.5" y="-578.3" font-family="Times,serif" font-size="14.00">HospitalsController</text>
<polyline fill="none" stroke="black" points="399,-570.5 556,-570.5 "/>
<text text-anchor="start" x="407" y="-555.3" font-family="Times,serif" font-size="14.00">create</text>
<text text-anchor="start" x="407" y="-540.3" font-family="Times,serif" font-size="14.00">destroy</text>
<text text-anchor="start" x="407" y="-525.3" font-family="Times,serif" font-size="14.00">edit</text>
<text text-anchor="start" x="407" y="-510.3" font-family="Times,serif" font-size="14.00">index</text>
<text text-anchor="start" x="407" y="-495.3" font-family="Times,serif" font-size="14.00">list</text>
<text text-anchor="start" x="407" y="-480.3" font-family="Times,serif" font-size="14.00">new</text>
<text text-anchor="start" x="407" y="-465.3" font-family="Times,serif" font-size="14.00">show</text>
<text text-anchor="start" x="407" y="-450.3" font-family="Times,serif" font-size="14.00">update</text>
<polyline fill="none" stroke="black" points="399,-442.5 556,-442.5 "/>
<polyline fill="none" stroke="black" points="399,-418.5 556,-418.5 "/>
<text text-anchor="start" x="407" y="-403.3" font-family="Times,serif" font-size="14.00">_layout</text>
<text text-anchor="start" x="407" y="-388.3" font-family="Times,serif" font-size="14.00">hospital_params</text>
</g>
</g>
</svg>
