<?xml version="1.0" encoding="UTF-8" standalone="no"?>
<!DOCTYPE svg PUBLIC "-//W3C//DTD SVG 1.1//EN"
 "http://www.w3.org/Graphics/SVG/1.1/DTD/svg11.dtd">
<!-- Generated by graphviz version 2.43.0 (0)
 -->
<!-- Title: models_diagram Pages: 1 -->
<svg width="595pt" height="374pt"
 viewBox="0.00 0.00 595.04 374.00" xmlns="http://www.w3.org/2000/svg" xmlns:xlink="http://www.w3.org/1999/xlink">
<g id="graph0" class="graph" transform="scale(1 1) rotate(0) translate(4 370)">
<title>models_diagram</title>
<polygon fill="transparent" stroke="transparent" points="-4,4 -4,-370 591.04,-370 591.04,4 -4,4"/>
<!-- _diagram_info -->
<g id="node1" class="node">
<title>_diagram_info</title>
<text text-anchor="start" x="8" y="-351.6" font-family="Times,serif" font-size="13.00">Models diagram</text>
<text text-anchor="start" x="8" y="-337.6" font-family="Times,serif" font-size="13.00">Date: Aug 01 2020 &#45; 16:51</text>
<text text-anchor="start" x="8" y="-323.6" font-family="Times,serif" font-size="13.00">Migration version: 20200729014848</text>
<text text-anchor="start" x="8" y="-309.6" font-family="Times,serif" font-size="13.00">Generated by RailRoady 1.5.3</text>
<text text-anchor="start" x="8" y="-295.6" font-family="Times,serif" font-size="13.00">http://railroady.prestonlee.com</text>
</g>
<!-- Hospital -->
<g id="node2" class="node">
<title>Hospital</title>
<ellipse fill="none" stroke="black" cx="327.5" cy="-327" rx="50.09" ry="18"/>
<text text-anchor="middle" x="327.5" y="-323.3" font-family="Times,serif" font-size="14.00">Hospital</text>
</g>
<!-- Test -->
<g id="node4" class="node">
<title>Test</title>
<ellipse fill="none" stroke="black" cx="297.5" cy="-234" rx="30.59" ry="18"/>
<text text-anchor="middle" x="297.5" y="-230.3" font-family="Times,serif" font-size="14.00">Test</text>
</g>
<!-- Hospital&#45;&gt;Test -->
<g id="edge2" class="edge">
<title>Hospital&#45;&gt;Test</title>
<path fill="none" stroke="#e05111" d="M318.72,-299.36C314.79,-287.45 310.17,-273.44 306.25,-261.54"/>
<polygon fill="#e05111" stroke="#e05111" points="318.73,-299.39 317.58,-310.29 320.29,-304.13 321.86,-308.88 321.86,-308.88 321.86,-308.88 320.29,-304.13 326.13,-307.47 318.73,-299.39 318.73,-299.39"/>
<polygon fill="#e05111" stroke="#e05111" points="306.15,-261.23 307.29,-250.32 304.58,-256.48 303.02,-251.73 303.02,-251.73 303.02,-251.73 304.58,-256.48 298.74,-253.14 306.15,-261.23 306.15,-261.23"/>
</g>
<!-- HospitalTest -->
<g id="node5" class="node">
<title>HospitalTest</title>
<ellipse fill="none" stroke="black" cx="326.5" cy="-162" rx="69.59" ry="18"/>
<text text-anchor="middle" x="326.5" y="-158.3" font-family="Times,serif" font-size="14.00">HospitalTest</text>
</g>
<!-- Hospital&#45;&gt;HospitalTest -->
<g id="edge1" class="edge">
<title>Hospital&#45;&gt;HospitalTest</title>
<path fill="none" stroke="#af81c7" d="M332.55,-300.87C336.37,-278.56 340.49,-245.09 337.5,-216 336.62,-207.46 334.97,-198.26 333.21,-189.96"/>
<ellipse fill="none" stroke="#af81c7" cx="331.82" cy="-304.9" rx="4" ry="4"/>
<polygon fill="#af81c7" stroke="#af81c7" points="333.17,-189.8 335.35,-179.05 332.07,-184.92 330.96,-180.05 330.96,-180.05 330.96,-180.05 332.07,-184.92 326.58,-181.04 333.17,-189.8 333.17,-189.8"/>
</g>
<!-- ApplicationRecord -->
<g id="node3" class="node">
<title>ApplicationRecord</title>
<ellipse fill="none" stroke="black" cx="491.5" cy="-327" rx="95.58" ry="18"/>
<text text-anchor="middle" x="491.5" y="-323.3" font-family="Times,serif" font-size="14.00">ApplicationRecord</text>
</g>
<!-- Test&#45;&gt;HospitalTest -->
<g id="edge3" class="edge">
<title>Test&#45;&gt;HospitalTest</title>
<path fill="none" stroke="#b6a148" d="M307.53,-208.78C310.12,-202.54 312.91,-195.8 315.54,-189.46"/>
<ellipse fill="none" stroke="#b6a148" cx="305.9" cy="-212.72" rx="4" ry="4"/>
<polygon fill="#b6a148" stroke="#b6a148" points="315.65,-189.19 323.63,-181.68 317.56,-184.58 319.48,-179.96 319.48,-179.96 319.48,-179.96 317.56,-184.58 315.32,-178.23 315.65,-189.19 315.65,-189.19"/>
</g>
<!-- Booking -->
<g id="node7" class="node">
<title>Booking</title>
<ellipse fill="none" stroke="black" cx="296.5" cy="-18" rx="48.19" ry="18"/>
<text text-anchor="middle" x="296.5" y="-14.3" font-family="Times,serif" font-size="14.00">Booking</text>
</g>
<!-- HospitalTest&#45;&gt;Booking -->
<g id="edge4" class="edge">
<title>HospitalTest&#45;&gt;Booking</title>
<path fill="none" stroke="#fa4687" d="M321.2,-135.93C315.88,-110.72 307.7,-71.99 302.22,-46.09"/>
<ellipse fill="none" stroke="#fa4687" cx="322.05" cy="-139.96" rx="4" ry="4"/>
<polygon fill="#fa4687" stroke="#fa4687" points="302.2,-45.97 304.53,-35.26 301.17,-41.08 300.13,-36.19 300.13,-36.19 300.13,-36.19 301.17,-41.08 295.73,-37.12 302.2,-45.97 302.2,-45.97"/>
</g>
<!-- User -->
<g id="node8" class="node">
<title>User</title>
<ellipse fill="none" stroke="black" cx="357.5" cy="-90" rx="33.29" ry="18"/>
<text text-anchor="middle" x="357.5" y="-86.3" font-family="Times,serif" font-size="14.00">User</text>
</g>
<!-- HospitalTest&#45;&gt;User -->
<g id="edge5" class="edge">
<title>HospitalTest&#45;&gt;User</title>
<path fill="none" stroke="#1b70db" d="M338.14,-134.71C340.7,-128.94 343.41,-122.82 345.96,-117.05"/>
<polygon fill="#1b70db" stroke="#1b70db" points="338.05,-134.91 329.89,-142.23 336.03,-139.48 334,-144.05 334,-144.05 334,-144.05 336.03,-139.48 338.12,-145.88 338.05,-134.91 338.05,-134.91"/>
<polygon fill="#1b70db" stroke="#1b70db" points="346.02,-116.93 354.18,-109.61 348.04,-112.36 350.06,-107.79 350.06,-107.79 350.06,-107.79 348.04,-112.36 345.95,-105.97 346.02,-116.93 346.02,-116.93"/>
</g>
<!-- RegisterUser -->
<g id="node6" class="node">
<title>RegisterUser</title>
<ellipse fill="none" stroke="black" cx="435.5" cy="-18" rx="72.59" ry="18"/>
<text text-anchor="middle" x="435.5" y="-14.3" font-family="Times,serif" font-size="14.00">RegisterUser</text>
</g>
<!-- User&#45;&gt;RegisterUser -->
<g id="edge6" class="edge">
<title>User&#45;&gt;RegisterUser</title>
<path fill="none" stroke="#f0552f" d="M380.27,-68.57C389.87,-59.95 401.07,-49.9 410.87,-41.11"/>
<ellipse fill="none" stroke="#f0552f" cx="377.02" cy="-71.48" rx="4" ry="4"/>
<ellipse fill="#f0552f" stroke="#f0552f" cx="414.09" cy="-38.21" rx="4" ry="4"/>
</g>
<!-- User&#45;&gt;Booking -->
<g id="edge7" class="edge">
<title>User&#45;&gt;Booking</title>
<path fill="none" stroke="#2a7d30" d="M338.62,-67.34C331.91,-59.63 324.31,-50.91 317.43,-43.02"/>
<ellipse fill="none" stroke="#2a7d30" cx="341.33" cy="-70.45" rx="4" ry="4"/>
<polygon fill="#2a7d30" stroke="#2a7d30" points="317.42,-43.01 314.24,-32.51 314.13,-39.24 310.85,-35.47 310.85,-35.47 310.85,-35.47 314.13,-39.24 307.46,-38.42 317.42,-43.01 317.42,-43.01"/>
</g>
</g>
</svg>
