<?xml version="1.0" encoding="UTF-8" standalone="no"?>
<!DOCTYPE svg PUBLIC "-//W3C//DTD SVG 1.1//EN"
 "http://www.w3.org/Graphics/SVG/1.1/DTD/svg11.dtd">
<!-- Generated by graphviz version 2.43.0 (0)
 -->
<!-- Title: models_diagram Pages: 1 -->
<svg width="875pt" height="897pt"
 viewBox="0.00 0.00 875.00 897.00" xmlns="http://www.w3.org/2000/svg" xmlns:xlink="http://www.w3.org/1999/xlink">
<g id="graph0" class="graph" transform="scale(1 1) rotate(0) translate(4 893)">
<title>models_diagram</title>
<polygon fill="transparent" stroke="transparent" points="-4,4 -4,-893 871,-893 871,4 -4,4"/>
<!-- _diagram_info -->
<g id="node1" class="node">
<title>_diagram_info</title>
<text text-anchor="start" x="8" y="-822.6" font-family="Times,serif" font-size="13.00">Models diagram</text>
<text text-anchor="start" x="8" y="-808.6" font-family="Times,serif" font-size="13.00">Date: Aug 01 2020 &#45; 16:51</text>
<text text-anchor="start" x="8" y="-794.6" font-family="Times,serif" font-size="13.00">Migration version: 20200729014848</text>
<text text-anchor="start" x="8" y="-780.6" font-family="Times,serif" font-size="13.00">Generated by RailRoady 1.5.3</text>
<text text-anchor="start" x="8" y="-766.6" font-family="Times,serif" font-size="13.00">http://railroady.prestonlee.com</text>
</g>
<!-- Hospital -->
<g id="node2" class="node">
<title>Hospital</title>
<path fill="none" stroke="black" d="M289,-707.5C289,-707.5 600,-707.5 600,-707.5 606,-707.5 612,-713.5 612,-719.5 612,-719.5 612,-876.5 612,-876.5 612,-882.5 606,-888.5 600,-888.5 600,-888.5 289,-888.5 289,-888.5 283,-888.5 277,-882.5 277,-876.5 277,-876.5 277,-719.5 277,-719.5 277,-713.5 283,-707.5 289,-707.5"/>
<text text-anchor="middle" x="444.5" y="-873.3" font-family="Times,serif" font-size="14.00">Hospital</text>
<polyline fill="none" stroke="black" points="277,-865.5 612,-865.5 "/>
<text text-anchor="start" x="285" y="-850.3" font-family="Times,serif" font-size="14.00">id :bigint</text>
<text text-anchor="start" x="285" y="-835.3" font-family="Times,serif" font-size="14.00">Hname :character varying</text>
<text text-anchor="start" x="285" y="-820.3" font-family="Times,serif" font-size="14.00">Haddress :character varying</text>
<text text-anchor="start" x="285" y="-805.3" font-family="Times,serif" font-size="14.00">contact :character varying</text>
<text text-anchor="start" x="285" y="-790.3" font-family="Times,serif" font-size="14.00">email :character varying</text>
<text text-anchor="start" x="285" y="-775.3" font-family="Times,serif" font-size="14.00">website :character varying</text>
<text text-anchor="start" x="285" y="-760.3" font-family="Times,serif" font-size="14.00">no_of_test :integer</text>
<text text-anchor="start" x="285" y="-745.3" font-family="Times,serif" font-size="14.00">cur_date :date</text>
<text text-anchor="start" x="285" y="-730.3" font-family="Times,serif" font-size="14.00">created_at :timestamp(6) without time zone</text>
<text text-anchor="start" x="285" y="-715.3" font-family="Times,serif" font-size="14.00">updated_at :timestamp(6) without time zone</text>
</g>
<!-- Test -->
<g id="node4" class="node">
<title>Test</title>
<path fill="none" stroke="black" d="M191,-549.5C191,-549.5 502,-549.5 502,-549.5 508,-549.5 514,-555.5 514,-561.5 514,-561.5 514,-658.5 514,-658.5 514,-664.5 508,-670.5 502,-670.5 502,-670.5 191,-670.5 191,-670.5 185,-670.5 179,-664.5 179,-658.5 179,-658.5 179,-561.5 179,-561.5 179,-555.5 185,-549.5 191,-549.5"/>
<text text-anchor="middle" x="346.5" y="-655.3" font-family="Times,serif" font-size="14.00">Test</text>
<polyline fill="none" stroke="black" points="179,-647.5 514,-647.5 "/>
<text text-anchor="start" x="187" y="-632.3" font-family="Times,serif" font-size="14.00">id :bigint</text>
<text text-anchor="start" x="187" y="-617.3" font-family="Times,serif" font-size="14.00">name :character varying</text>
<text text-anchor="start" x="187" y="-602.3" font-family="Times,serif" font-size="14.00">testdescription :character varying</text>
<text text-anchor="start" x="187" y="-587.3" font-family="Times,serif" font-size="14.00">testamount :integer</text>
<text text-anchor="start" x="187" y="-572.3" font-family="Times,serif" font-size="14.00">created_at :timestamp(6) without time zone</text>
<text text-anchor="start" x="187" y="-557.3" font-family="Times,serif" font-size="14.00">updated_at :timestamp(6) without time zone</text>
</g>
<!-- Hospital&#45;&gt;Test -->
<g id="edge2" class="edge">
<title>Hospital&#45;&gt;Test</title>
<path fill="none" stroke="#97f86c" d="M392.46,-698.22C389.12,-691.89 385.8,-685.6 382.57,-679.46"/>
<polygon fill="#97f86c" stroke="#97f86c" points="392.56,-698.42 393.24,-709.37 394.89,-702.85 397.22,-707.27 397.22,-707.27 397.22,-707.27 394.89,-702.85 401.2,-705.17 392.56,-698.42 392.56,-698.42"/>
<polygon fill="#97f86c" stroke="#97f86c" points="382.55,-679.43 381.87,-668.49 380.22,-675.01 377.89,-670.58 377.89,-670.58 377.89,-670.58 380.22,-675.01 373.91,-672.68 382.55,-679.43 382.55,-679.43"/>
</g>
<!-- HospitalTest -->
<g id="node5" class="node">
<title>HospitalTest</title>
<path fill="none" stroke="black" d="M289,-406.5C289,-406.5 600,-406.5 600,-406.5 606,-406.5 612,-412.5 612,-418.5 612,-418.5 612,-500.5 612,-500.5 612,-506.5 606,-512.5 600,-512.5 600,-512.5 289,-512.5 289,-512.5 283,-512.5 277,-506.5 277,-500.5 277,-500.5 277,-418.5 277,-418.5 277,-412.5 283,-406.5 289,-406.5"/>
<text text-anchor="middle" x="444.5" y="-497.3" font-family="Times,serif" font-size="14.00">HospitalTest</text>
<polyline fill="none" stroke="black" points="277,-489.5 612,-489.5 "/>
<text text-anchor="start" x="285" y="-474.3" font-family="Times,serif" font-size="14.00">id :bigint</text>
<text text-anchor="start" x="285" y="-459.3" font-family="Times,serif" font-size="14.00">hospital_id :bigint</text>
<text text-anchor="start" x="285" y="-444.3" font-family="Times,serif" font-size="14.00">test_id :bigint</text>
<text text-anchor="start" x="285" y="-429.3" font-family="Times,serif" font-size="14.00">created_at :timestamp(6) without time zone</text>
<text text-anchor="start" x="285" y="-414.3" font-family="Times,serif" font-size="14.00">updated_at :timestamp(6) without time zone</text>
</g>
<!-- Hospital&#45;&gt;HospitalTest -->
<g id="edge1" class="edge">
<title>Hospital&#45;&gt;HospitalTest</title>
<path fill="none" stroke="#a3e90c" d="M511.55,-700.01C515.95,-690.51 519.72,-680.76 522.5,-671 537.34,-618.85 541.66,-599.72 522.5,-549 518.73,-539.03 513.27,-529.45 506.96,-520.52"/>
<ellipse fill="none" stroke="#a3e90c" cx="509.81" cy="-703.62" rx="4" ry="4"/>
<polygon fill="#a3e90c" stroke="#a3e90c" points="506.95,-520.51 504.55,-509.81 503.95,-516.51 500.95,-512.51 500.95,-512.51 500.95,-512.51 503.95,-516.51 497.35,-515.21 506.95,-520.51 506.95,-520.51"/>
</g>
<!-- ApplicationRecord -->
<g id="node3" class="node">
<title>ApplicationRecord</title>
<ellipse fill="none" stroke="black" cx="725.5" cy="-798" rx="95.58" ry="18"/>
<text text-anchor="middle" x="725.5" y="-794.3" font-family="Times,serif" font-size="14.00">ApplicationRecord</text>
</g>
<!-- Test&#45;&gt;HospitalTest -->
<g id="edge3" class="edge">
<title>Test&#45;&gt;HospitalTest</title>
<path fill="none" stroke="#35ab4f" d="M390.32,-542.6C394.94,-535.59 399.63,-528.5 404.21,-521.56"/>
<ellipse fill="none" stroke="#35ab4f" cx="388" cy="-546.12" rx="4" ry="4"/>
<polygon fill="#35ab4f" stroke="#35ab4f" points="404.43,-521.22 413.69,-515.35 407.18,-517.05 409.94,-512.87 409.94,-512.87 409.94,-512.87 407.18,-517.05 406.18,-510.39 404.43,-521.22 404.43,-521.22"/>
</g>
<!-- Booking -->
<g id="node7" class="node">
<title>Booking</title>
<path fill="none" stroke="black" d="M191,-0.5C191,-0.5 502,-0.5 502,-0.5 508,-0.5 514,-6.5 514,-12.5 514,-12.5 514,-124.5 514,-124.5 514,-130.5 508,-136.5 502,-136.5 502,-136.5 191,-136.5 191,-136.5 185,-136.5 179,-130.5 179,-124.5 179,-124.5 179,-12.5 179,-12.5 179,-6.5 185,-0.5 191,-0.5"/>
<text text-anchor="middle" x="346.5" y="-121.3" font-family="Times,serif" font-size="14.00">Booking</text>
<polyline fill="none" stroke="black" points="179,-113.5 514,-113.5 "/>
<text text-anchor="start" x="187" y="-98.3" font-family="Times,serif" font-size="14.00">id :bigint</text>
<text text-anchor="start" x="187" y="-83.3" font-family="Times,serif" font-size="14.00">bookingdate :date</text>
<text text-anchor="start" x="187" y="-68.3" font-family="Times,serif" font-size="14.00">bookingtime :time without time zone</text>
<text text-anchor="start" x="187" y="-53.3" font-family="Times,serif" font-size="14.00">user_id :bigint</text>
<text text-anchor="start" x="187" y="-38.3" font-family="Times,serif" font-size="14.00">hospital_test_id :bigint</text>
<text text-anchor="start" x="187" y="-23.3" font-family="Times,serif" font-size="14.00">created_at :timestamp(6) without time zone</text>
<text text-anchor="start" x="187" y="-8.3" font-family="Times,serif" font-size="14.00">updated_at :timestamp(6) without time zone</text>
</g>
<!-- HospitalTest&#45;&gt;Booking -->
<g id="edge4" class="edge">
<title>HospitalTest&#45;&gt;Booking</title>
<path fill="none" stroke="#05bba0" d="M383.05,-399.96C376.06,-390.59 369.89,-380.5 365.5,-370 335.71,-298.73 333.98,-209.61 337.84,-147"/>
<ellipse fill="none" stroke="#05bba0" cx="385.54" cy="-403.16" rx="4" ry="4"/>
<polygon fill="#05bba0" stroke="#05bba0" points="337.86,-146.77 343.02,-137.1 338.2,-141.78 338.54,-136.79 338.54,-136.79 338.54,-136.79 338.2,-141.78 334.05,-136.49 337.86,-146.77 337.86,-146.77"/>
</g>
<!-- User -->
<g id="node8" class="node">
<title>User</title>
<path fill="none" stroke="black" d="M387,-173.5C387,-173.5 698,-173.5 698,-173.5 704,-173.5 710,-179.5 710,-185.5 710,-185.5 710,-357.5 710,-357.5 710,-363.5 704,-369.5 698,-369.5 698,-369.5 387,-369.5 387,-369.5 381,-369.5 375,-363.5 375,-357.5 375,-357.5 375,-185.5 375,-185.5 375,-179.5 381,-173.5 387,-173.5"/>
<text text-anchor="middle" x="542.5" y="-354.3" font-family="Times,serif" font-size="14.00">User</text>
<polyline fill="none" stroke="black" points="375,-346.5 710,-346.5 "/>
<text text-anchor="start" x="383" y="-331.3" font-family="Times,serif" font-size="14.00">id :bigint</text>
<text text-anchor="start" x="383" y="-316.3" font-family="Times,serif" font-size="14.00">name :character varying</text>
<text text-anchor="start" x="383" y="-301.3" font-family="Times,serif" font-size="14.00">contactno :character varying</text>
<text text-anchor="start" x="383" y="-286.3" font-family="Times,serif" font-size="14.00">address :character varying</text>
<text text-anchor="start" x="383" y="-271.3" font-family="Times,serif" font-size="14.00">email :character varying</text>
<text text-anchor="start" x="383" y="-256.3" font-family="Times,serif" font-size="14.00">dob :date</text>
<text text-anchor="start" x="383" y="-241.3" font-family="Times,serif" font-size="14.00">bloodgrp :character varying(3)</text>
<text text-anchor="start" x="383" y="-226.3" font-family="Times,serif" font-size="14.00">registerstatus :character varying</text>
<text text-anchor="start" x="383" y="-211.3" font-family="Times,serif" font-size="14.00">loggedstatus :character varying</text>
<text text-anchor="start" x="383" y="-196.3" font-family="Times,serif" font-size="14.00">created_at :timestamp(6) without time zone</text>
<text text-anchor="start" x="383" y="-181.3" font-family="Times,serif" font-size="14.00">updated_at :timestamp(6) without time zone</text>
</g>
<!-- HospitalTest&#45;&gt;User -->
<g id="edge5" class="edge">
<title>HospitalTest&#45;&gt;User</title>
<path fill="none" stroke="#041db7" d="M476.84,-397.11C479.99,-391.14 483.24,-384.98 486.53,-378.73"/>
<polygon fill="#041db7" stroke="#041db7" points="476.72,-397.35 468.08,-404.1 474.39,-401.77 472.06,-406.19 472.06,-406.19 472.06,-406.19 474.39,-401.77 476.04,-408.29 476.72,-397.35 476.72,-397.35"/>
<polygon fill="#041db7" stroke="#041db7" points="486.71,-378.38 495.35,-371.63 489.04,-373.96 491.37,-369.54 491.37,-369.54 491.37,-369.54 489.04,-373.96 487.39,-367.44 486.71,-378.38 486.71,-378.38"/>
</g>
<!-- RegisterUser -->
<g id="node6" class="node">
<title>RegisterUser</title>
<path fill="none" stroke="black" d="M544,-15.5C544,-15.5 855,-15.5 855,-15.5 861,-15.5 867,-21.5 867,-27.5 867,-27.5 867,-109.5 867,-109.5 867,-115.5 861,-121.5 855,-121.5 855,-121.5 544,-121.5 544,-121.5 538,-121.5 532,-115.5 532,-109.5 532,-109.5 532,-27.5 532,-27.5 532,-21.5 538,-15.5 544,-15.5"/>
<text text-anchor="middle" x="699.5" y="-106.3" font-family="Times,serif" font-size="14.00">RegisterUser</text>
<polyline fill="none" stroke="black" points="532,-98.5 867,-98.5 "/>
<text text-anchor="start" x="540" y="-83.3" font-family="Times,serif" font-size="14.00">id :bigint</text>
<text text-anchor="start" x="540" y="-68.3" font-family="Times,serif" font-size="14.00">username :character varying</text>
<text text-anchor="start" x="540" y="-53.3" font-family="Times,serif" font-size="14.00">user_id :bigint</text>
<text text-anchor="start" x="540" y="-38.3" font-family="Times,serif" font-size="14.00">created_at :timestamp(6) without time zone</text>
<text text-anchor="start" x="540" y="-23.3" font-family="Times,serif" font-size="14.00">updated_at :timestamp(6) without time zone</text>
</g>
<!-- User&#45;&gt;RegisterUser -->
<g id="edge6" class="edge">
<title>User&#45;&gt;RegisterUser</title>
<path fill="none" stroke="#20f4d7" d="M623.7,-166.55C633.98,-153.38 644.21,-140.29 653.66,-128.19"/>
<ellipse fill="none" stroke="#20f4d7" cx="620.93" cy="-170.09" rx="4" ry="4"/>
<ellipse fill="#20f4d7" stroke="#20f4d7" cx="656.37" cy="-124.72" rx="4" ry="4"/>
</g>
<!-- User&#45;&gt;Booking -->
<g id="edge7" class="edge">
<title>User&#45;&gt;Booking</title>
<path fill="none" stroke="#b6a1bb" d="M441.98,-167.41C434.31,-159.55 426.66,-151.7 419.22,-144.07"/>
<ellipse fill="none" stroke="#b6a1bb" cx="444.87" cy="-170.37" rx="4" ry="4"/>
<polygon fill="#b6a1bb" stroke="#b6a1bb" points="418.84,-143.68 415.08,-133.38 415.35,-140.1 411.86,-136.52 411.86,-136.52 411.86,-136.52 415.35,-140.1 408.63,-139.67 418.84,-143.68 418.84,-143.68"/>
</g>
</g>
</svg>
